<svg height="300" id="largePlayButton" width="300" xmlns="http://www.w3.org/2000/svg" xmlns:svg="http://www.w3.org/2000/svg" xmlns:xlink="http://www.w3.org/1999/xlink">
  <rect height="20" id="rect_1" rx="5.2" ry="2.4" style="fill: black; fill-opacity: 1; stroke: black" width="200" x="0" y="10" />
  <rect height="10" id="rect_2" rx="5.2" ry="2.4" style="fill: white; fill-opacity: 1; stroke: white" width="180" x="0" y="15" />
  <line style="stroke: black" x1="20" x2="20" y1="10" y2="30" />
  <line style="stroke: black" x1="30" x2="30" y1="10" y2="30" />
  <line style="stroke: black" x1="40" x2="40" y1="10" y2="30" />
  <line style="stroke: black" x1="50" x2="50" y1="10" y2="30" />
  <line style="stroke: black" x1="60" x2="60" y1="10" y2="30" />
  <line style="stroke: black" x1="70" x2="70" y1="10" y2="30" />
  <line style="stroke: black" x1="80" x2="80" y1="10" y2="30" />
  <line style="stroke: black" x1="90" x2="90" y1="10" y2="30" />
  <line style="stroke: black" x1="100" x2="100" y1="10" y2="30" />
  <line style="stroke: black" x1="110" x2="110" y1="10" y2="30" />
  <line style="stroke: black" x1="120" x2="120" y1="10" y2="30" />
  <line style="stroke: black" x1="130" x2="130" y1="10" y2="30" />
  <line style="stroke: black" x1="140" x2="140" y1="10" y2="30" />
  <line style="stroke: black" x1="150" x2="150" y1="10" y2="30" />
  <line style="stroke: black" x1="160" x2="160" y1="10" y2="30" />
  <line style="stroke: black" x1="170" x2="170" y1="10" y2="30" />
  <line style="stroke: black" x1="180" x2="180" y1="10" y2="30" />
  <line style="stroke: black" x1="190" x2="190" y1="10" y2="30" />
  <!-- 
	Generated using the Perl SVG Module V2.59
	by Ronan Oger
	Info: http://www.roitsystems.com/
 -->
</svg>
